<svg width="139" height="139" viewBox="0 0 139 139" fill="none" xmlns="http://www.w3.org/2000/svg">
<circle cx="69.5" cy="69.5" r="69.5" fill="black"/>
<path d="M30.3082 67.9385C30.3082 65.109 30.6418 62.3997 31.3091 59.8105C31.9765 57.2214 33.0041 54.8991 34.3921 52.8438C35.7802 50.7884 37.5552 49.1201 39.7173 47.8389C41.9061 46.5309 44.5087 45.877 47.525 45.877C49.0998 45.877 50.5813 46.0771 51.9693 46.4775C53.384 46.8512 54.6786 47.4118 55.8531 48.1592C56.7873 48.7464 57.6415 49.4271 58.4156 50.2012C59.2164 50.9753 59.9237 51.8294 60.5377 52.7637L60.7379 46.6777H65.1822V89.2393C65.1822 91.9085 64.7684 94.3376 63.941 96.5264C63.1402 98.7419 61.9924 100.637 60.4976 102.212C58.9761 103.813 57.1477 105.055 55.0123 105.936C52.9035 106.816 50.5145 107.257 47.8453 107.257C46.4039 107.257 44.9358 107.07 43.441 106.696C41.9462 106.349 40.5048 105.815 39.1168 105.095C37.9156 104.507 36.7545 103.773 35.6334 102.893C34.539 102.038 33.5647 101.037 32.7105 99.8896L35.3931 96.9268C36.1672 97.861 36.968 98.6885 37.7955 99.4092C38.6229 100.13 39.4771 100.744 40.358 101.251C41.4524 101.865 42.5868 102.332 43.7613 102.652C44.9625 102.999 46.217 103.173 47.525 103.173C49.5803 103.173 51.3954 102.839 52.9703 102.172C54.5718 101.505 55.9332 100.57 57.0543 99.3691C58.122 98.168 58.9361 96.7132 59.4966 95.0049C60.0839 93.3232 60.3775 91.4548 60.3775 89.3994V84.6348C59.7369 85.5423 58.9895 86.3564 58.1353 87.0771C57.3078 87.7712 56.4003 88.3851 55.4127 88.9189C54.2382 89.5329 52.9703 90 51.6089 90.3203C50.2743 90.6406 48.8863 90.8008 47.4449 90.8008C44.5888 90.8008 42.1063 90.2002 39.9976 88.999C37.8889 87.7979 36.1272 86.1963 34.7125 84.1943C33.2177 82.1657 32.1099 79.8034 31.3892 77.1074C30.6685 74.3848 30.3082 71.6087 30.3082 68.7793V67.9385ZM35.1129 68.7793C35.1395 70.9948 35.3931 73.2103 35.8736 75.4258C36.3808 77.6146 37.1815 79.5365 38.2759 81.1914C39.2636 82.8197 40.5982 84.1276 42.2798 85.1152C43.9615 86.1029 45.9768 86.5967 48.3257 86.5967C49.6871 86.5967 50.9817 86.4232 52.2095 86.0762C53.4641 85.7025 54.6252 85.182 55.6929 84.5146C56.7073 83.8473 57.6148 83.0465 58.4156 82.1123C59.2431 81.1514 59.897 80.0703 60.3775 78.8691V58.4893C59.897 57.2347 59.2698 56.1003 58.4957 55.0859C57.7216 54.0716 56.8274 53.1908 55.813 52.4434C54.7987 51.696 53.6643 51.1221 52.4097 50.7217C51.1819 50.2946 49.8472 50.0811 48.4058 50.0811C45.87 50.0811 43.7479 50.6416 42.0396 51.7627C40.3313 52.8571 38.9699 54.2585 37.9556 55.9668C36.9413 57.6484 36.2073 59.5303 35.7535 61.6123C35.3264 63.6943 35.1129 65.8031 35.1129 67.9385V68.7793ZM102.206 45.877C103.38 45.877 104.568 45.957 105.769 46.1172C106.997 46.2507 108.025 46.4508 108.852 46.7178L108.211 51.3623C107.117 51.1221 106.009 50.9352 104.888 50.8018C103.767 50.6683 102.619 50.6016 101.445 50.6016C99.4161 50.6016 97.5076 50.8418 95.7192 51.3223C93.9575 51.776 92.3692 52.4967 90.9545 53.4844C89.5932 54.4453 88.4054 55.6598 87.3911 57.1279C86.4034 58.5693 85.6427 60.291 85.1088 62.293L85.1489 90H80.2241V46.6777H84.7885L85.0688 53.3643V55.2861C86.7504 52.3232 89.046 50.0143 91.9555 48.3594C94.865 46.6777 98.2817 45.8503 102.206 45.877Z" fill="white"/>
</svg>
